<?xml version="1.0" encoding="UTF-8" standalone="no"?>
<svg
   version="1.1"
   width="512"
   height="512"
   id="svg4982"
   xml:space="preserve"
   xmlns="http://www.w3.org/2000/svg"
   xmlns:svg="http://www.w3.org/2000/svg"><defs
     id="defs4986" /><path
     id="path10857"
     style="stroke-width:1"
     d="M 83.070312,6 V 506 H 428.92969 V 6 Z M 256.19727,70.796875 c 37.27792,0.157002 80.56897,6.416114 126.79687,24.705078 0,0 -1.45347,4.496936 -7.10547,14.669927 C 333.59975,91.740903 292.29306,85.880249 256.20312,86.15625 h -0.004 c -36.09094,-0.276001 -77.40955,5.584653 -119.68945,24.01563 -5.038,-9.131 -7.09961,-14.669927 -7.09961,-14.669927 46.2209,-18.287965 89.51017,-24.548076 126.78711,-24.705078 z m -26.15625,24.564453 26.14843,31.849612 26.14453,-31.845706 c 0,0 44.86001,0.933151 89.50586,21.621096 -11.43994,17.17794 -34.125,25.63672 -34.125,25.63672 -1.54097,-15.13497 -12.20757,-18.84375 -46.02148,-18.84375 L 256.2168,323.29883 220.45508,123.75195 c -33.58791,0.024 -44.24202,3.73125 -45.79102,18.86719 0,0 -22.6921,-8.45878 -34.12304,-25.63672 44.63985,-20.687931 89.5,-21.621092 89.5,-21.621092 z M 174.53125,394.89648 h 41.67969 c -0.783,3.207 -3.57599,6.51663 -7.33399,7.26563 h -27.01172 c -3.72199,-0.749 -6.55598,-4.05863 -7.33398,-7.26563 z m -62.9375,0.0195 h 45.67578 v 0.0703 c -0.798,3.16699 -3.47921,6.23484 -7.2832,7.21484 h -11.37891 l -0.64648,0.22852 v 28.6914 h -7.09961 v -28.6914 l -0.58008,-0.22852 h -11.37109 c -3.761,-0.812 -6.50441,-4.04785 -7.31641,-7.21484 z m 236.99219,0.0137 h 41.67968 c -0.78699,3.20399 -3.57708,6.51572 -7.33007,7.26172 h -27.01953 c -3.719,-0.746 -6.55108,-4.05573 -7.33008,-7.26172 z m -45.51367,0.0176 -0.0215,29.11718 h 31.51953 c -0.731,3.041 -2.63864,5.63863 -6.18164,7.14063 H 296.0078 v -36.23633 z m -66.59961,0.01 h 39.64062 c -0.77,3.177 -3.92941,6.04372 -7.6914,7.13672 h -24.95313 -0.002 v 7.16016 h 32.41992 v 21.94336 h -39.41406 l -2.0625,0.0391 c 1.68699,-3.537 5.06864,-6.21613 9.05664,-7.32813 l 25.44922,-0.0195 v -7.51562 h -32.44336 z m -61.94141,14.26563 h 41.67969 c -0.783,3.20899 -3.57599,6.52072 -7.33399,7.26172 h -27.01172 c -3.72199,-0.741 -6.55598,-4.05073 -7.33398,-7.26172 z m 175.14063,0.0566 39.62304,0.0391 v 21.87305 h -7.02148 v -14.58789 h -25.57422 v 14.58789 h -7.02734 z m -175.14063,14.6582 h 41.67969 c -0.783,3.205 -3.57599,6.51667 -7.33399,7.26367 h -27.01172 c -3.72199,-0.747 -6.55598,-4.05567 -7.33398,-7.26367 z" /></svg>
